<?xml version="1.0" encoding="utf-8"?>
<!-- Generator: Adobe Illustrator 14.0.0, SVG Export Plug-In . SVG Version: 6.00 Build 43363)  -->
<!DOCTYPE svg PUBLIC "-//W3C//DTD SVG 1.1//EN" "http://www.w3.org/Graphics/SVG/1.1/DTD/svg11.dtd">
<svg version="1.1" id="Layer_1" xmlns="http://www.w3.org/2000/svg" xmlns:xlink="http://www.w3.org/1999/xlink" x="0px" y="0px"
	 width="100px" height="100px" viewBox="0 0 100 100" enable-background="new 0 0 100 100" xml:space="preserve">
<path fill="#8CC63F" stroke="#000000" stroke-width="4" d="M34.476,17.188c9.331-5.664,18.407,3.66,29.707,4.536
	c8.542,0.662,15.884-0.553,18.094,7.735s-2.9,23.481,0,32.044s0.689,19.337-9.945,21.823s-25-2.086-39.917-0.829
	C19.293,83.603,11.005,70.48,11.282,62.884s10.359-22.237,11.464-26.657S24.956,22.967,34.476,17.188z"/>
<ellipse fill="#6A991F" cx="60.356" cy="69.309" rx="4.993" ry="5.18"/>
<ellipse fill="#6A991F" cx="30.58" cy="52.87" rx="5.913" ry="5.871"/>
<ellipse fill="#6A991F" cx="61.85" cy="44.596" rx="5.913" ry="5.871"/>
<path fill="#EEF9C2" stroke="#000000" stroke-width="3" d="M46.489,28.212c10.429-3.778,16.081,5.796,13.054,12.498
	c-3.026,6.702-14.189,12.499-17.783,6.521C38.166,41.253,39.49,30.749,46.489,28.212z"/>
</svg>
